<svg xmlns="http://www.w3.org/2000/svg" xmlns:xlink="http://www.w3.org/1999/xlink" width="50" zoomAndPan="magnify" viewBox="0 0 37.5 37.499999" height="50" preserveAspectRatio="xMidYMid meet" version="1.0"><path fill="#ffffff" d="M 31.398438 8.683594 C 28.371094 6.246094 23.578125 5.835938 23.375 5.816406 C 23.054688 5.789062 22.753906 5.972656 22.621094 6.265625 C 22.617188 6.273438 22.347656 7.050781 22.089844 7.796875 C 25.609375 8.414062 28.003906 9.78125 28.132812 9.859375 C 28.730469 10.203125 28.929688 10.972656 28.578125 11.566406 C 28.347656 11.964844 27.929688 12.1875 27.5 12.1875 C 27.285156 12.1875 27.070312 12.132812 26.875 12.019531 C 26.839844 11.996094 23.328125 10 18.753906 10 C 14.175781 10 10.664062 12 10.628906 12.019531 C 10.03125 12.363281 9.265625 12.160156 8.921875 11.5625 C 8.574219 10.96875 8.777344 10.203125 9.371094 9.859375 C 9.5 9.78125 11.898438 8.410156 15.429688 7.796875 C 15.160156 7.039062 14.882812 6.273438 14.878906 6.265625 C 14.746094 5.96875 14.445312 5.785156 14.125 5.816406 C 13.921875 5.832031 9.128906 6.246094 6.058594 8.714844 C 4.453125 10.199219 1.25 18.863281 1.25 26.359375 C 1.25 26.492188 1.285156 26.621094 1.351562 26.734375 C 3.5625 30.621094 9.597656 31.640625 10.972656 31.683594 C 10.984375 31.683594 10.988281 31.683594 10.996094 31.683594 C 11.238281 31.683594 11.46875 31.570312 11.613281 31.371094 L 13.101562 29.359375 C 9.835938 28.570312 8.113281 27.335938 8.007812 27.257812 C 7.453125 26.851562 7.332031 26.066406 7.742188 25.511719 C 8.148438 24.957031 8.929688 24.835938 9.484375 25.242188 C 9.53125 25.269531 12.714844 27.5 18.75 27.5 C 24.808594 27.5 27.984375 25.261719 28.015625 25.238281 C 28.570312 24.835938 29.351562 24.957031 29.757812 25.515625 C 30.164062 26.070312 30.046875 26.847656 29.492188 27.257812 C 29.390625 27.332031 27.671875 28.566406 24.417969 29.351562 L 25.886719 31.371094 C 26.03125 31.570312 26.261719 31.683594 26.503906 31.683594 C 26.511719 31.683594 26.519531 31.683594 26.527344 31.683594 C 27.902344 31.640625 33.9375 30.621094 36.148438 26.734375 C 36.214844 26.617188 36.25 26.488281 36.25 26.359375 C 36.25 18.863281 33.046875 10.199219 31.398438 8.683594 Z M 13.75 23.75 C 12.367188 23.75 11.25 22.351562 11.25 20.625 C 11.25 18.898438 12.367188 17.5 13.75 17.5 C 15.132812 17.5 16.25 18.898438 16.25 20.625 C 16.25 22.351562 15.132812 23.75 13.75 23.75 Z M 23.75 23.75 C 22.367188 23.75 21.25 22.351562 21.25 20.625 C 21.25 18.898438 22.367188 17.5 23.75 17.5 C 25.132812 17.5 26.25 18.898438 26.25 20.625 C 26.25 22.351562 25.132812 23.75 23.75 23.75 Z M 23.75 23.75 " fill-opacity="1" fill-rule="nonzero"/></svg>