<svg xmlns="http://www.w3.org/2000/svg" xmlns:xlink="http://www.w3.org/1999/xlink" width="50" zoomAndPan="magnify" viewBox="0 0 37.5 37.499999" height="50" preserveAspectRatio="xMidYMid meet" version="1.0"><path fill="#ffffff" d="M 31.21875 8.078125 C 28.234375 5.675781 23.511719 5.265625 23.308594 5.253906 C 22.996094 5.226562 22.695312 5.402344 22.566406 5.691406 C 22.554688 5.710938 22.453125 5.945312 22.339844 6.316406 C 24.3125 6.648438 26.738281 7.320312 28.933594 8.683594 C 29.285156 8.898438 29.394531 9.363281 29.175781 9.714844 C 29.03125 9.945312 28.789062 10.070312 28.539062 10.070312 C 28.402344 10.070312 28.265625 10.035156 28.140625 9.957031 C 24.367188 7.617188 19.65625 7.5 18.75 7.5 C 17.839844 7.5 13.128906 7.617188 9.359375 9.957031 C 9.007812 10.175781 8.542969 10.070312 8.328125 9.71875 C 8.105469 9.363281 8.214844 8.902344 8.566406 8.683594 C 10.761719 7.324219 13.1875 6.648438 15.160156 6.320312 C 15.046875 5.945312 14.945312 5.710938 14.933594 5.691406 C 14.804688 5.402344 14.507812 5.21875 14.191406 5.253906 C 13.988281 5.265625 9.265625 5.675781 6.242188 8.109375 C 4.660156 9.570312 1.5 18.113281 1.5 25.5 C 1.5 25.632812 1.535156 25.757812 1.601562 25.871094 C 3.78125 29.703125 9.730469 30.707031 11.085938 30.75 C 11.089844 30.75 11.101562 30.75 11.109375 30.75 C 11.347656 30.75 11.574219 30.636719 11.714844 30.441406 L 13.085938 28.554688 C 9.386719 27.601562 7.496094 25.976562 7.390625 25.878906 C 7.078125 25.609375 7.050781 25.132812 7.324219 24.824219 C 7.597656 24.511719 8.070312 24.484375 8.382812 24.753906 C 8.425781 24.796875 11.90625 27.75 18.75 27.75 C 25.605469 27.75 29.085938 24.785156 29.121094 24.753906 C 29.429688 24.484375 29.902344 24.511719 30.179688 24.824219 C 30.449219 25.136719 30.421875 25.609375 30.109375 25.878906 C 30.003906 25.976562 28.113281 27.601562 24.414062 28.554688 L 25.785156 30.441406 C 25.925781 30.636719 26.148438 30.75 26.390625 30.75 C 26.398438 30.75 26.40625 30.75 26.414062 30.75 C 27.769531 30.707031 33.71875 29.703125 35.898438 25.871094 C 35.964844 25.757812 36 25.632812 36 25.5 C 36 18.113281 32.839844 9.570312 31.21875 8.078125 Z M 13.875 22.5 C 12.425781 22.5 11.25 21.15625 11.25 19.5 C 11.25 17.839844 12.425781 16.5 13.875 16.5 C 15.324219 16.5 16.5 17.839844 16.5 19.5 C 16.5 21.15625 15.324219 22.5 13.875 22.5 Z M 23.625 22.5 C 22.175781 22.5 21 21.15625 21 19.5 C 21 17.839844 22.175781 16.5 23.625 16.5 C 25.074219 16.5 26.25 17.839844 26.25 19.5 C 26.25 21.15625 25.074219 22.5 23.625 22.5 Z M 23.625 22.5 " fill-opacity="1" fill-rule="nonzero"/></svg>