<svg xmlns="http://www.w3.org/2000/svg" xmlns:xlink="http://www.w3.org/1999/xlink" width="50" zoomAndPan="magnify" viewBox="0 0 37.5 37.499999" height="50" preserveAspectRatio="xMidYMid meet" version="1.0"><path fill="#ffffff" d="M 18.75 3.75 C 10.464844 3.75 3.75 10.464844 3.75 18.75 C 3.75 25.777344 8.589844 31.660156 15.113281 33.289062 C 15.046875 33.085938 15 32.851562 15 32.558594 L 15 29.996094 C 14.390625 29.996094 13.371094 29.996094 13.113281 29.996094 C 12.089844 29.996094 11.175781 29.554688 10.734375 28.734375 C 10.242188 27.824219 10.15625 26.429688 8.941406 25.578125 C 8.578125 25.292969 8.855469 24.96875 9.269531 25.011719 C 10.039062 25.230469 10.675781 25.757812 11.277344 26.539062 C 11.875 27.324219 12.15625 27.5 13.269531 27.5 C 13.8125 27.5 14.621094 27.46875 15.386719 27.351562 C 15.796875 26.308594 16.503906 25.351562 17.371094 24.898438 C 12.375 24.382812 9.992188 21.898438 9.992188 18.523438 C 9.992188 17.074219 10.609375 15.667969 11.660156 14.484375 C 11.316406 13.308594 10.882812 10.914062 11.792969 10 C 14.042969 10 15.398438 11.457031 15.726562 11.851562 C 16.847656 11.46875 18.078125 11.25 19.367188 11.25 C 20.664062 11.25 21.898438 11.46875 23.019531 11.855469 C 23.34375 11.460938 24.703125 10 26.957031 10 C 27.871094 10.914062 27.433594 13.320312 27.082031 14.492188 C 28.128906 15.671875 28.742188 17.074219 28.742188 18.523438 C 28.742188 21.894531 26.363281 24.378906 21.375 24.894531 C 22.75 25.613281 23.75 27.625 23.75 29.140625 L 23.75 32.558594 C 23.75 32.6875 23.722656 32.78125 23.707031 32.894531 C 29.550781 30.84375 33.75 25.296875 33.75 18.75 C 33.75 10.464844 27.035156 3.75 18.75 3.75 Z M 18.75 3.75 " fill-opacity="1" fill-rule="nonzero"/></svg>