<svg xmlns="http://www.w3.org/2000/svg" xmlns:xlink="http://www.w3.org/1999/xlink" width="160" zoomAndPan="magnify" viewBox="0 0 120 119.999999" height="160" preserveAspectRatio="xMidYMid meet" version="1.0"><defs><clipPath id="53f572d6ca"><path d="M 0.0273438 21 L 119.972656 21 L 119.972656 57.75 L 0.0273438 57.75 Z M 0.0273438 21 " clip-rule="nonzero"/></clipPath><clipPath id="93f62d47a6"><path d="M 11.0625 8.179688 L 117.332031 8.179688 L 117.332031 57.75 L 11.0625 57.75 Z M 11.0625 8.179688 " clip-rule="nonzero"/></clipPath></defs><path fill="#f59b12" d="M 82.570312 32.648438 L 37.429688 32.648438 L 45.492188 10.21875 C 47.695312 4.089844 53.5 0 60 0 C 66.5 0 72.304688 4.089844 74.507812 10.21875 L 82.570312 32.648438 " fill-opacity="1" fill-rule="nonzero"/><path fill="#f9c00d" d="M 75.105469 11.890625 L 44.894531 11.890625 L 42.140625 19.550781 L 77.859375 19.550781 Z M 119.972656 32.019531 L 119.972656 42.027344 C 119.972656 44.578125 117.910156 46.644531 115.371094 46.644531 L 4.628906 46.644531 C 2.089844 46.644531 0.0273438 44.578125 0.0273438 42.027344 L 0.0273438 32.019531 L 119.972656 32.019531 " fill-opacity="1" fill-rule="nonzero"/><path fill="#e5ee4c" d="M 75.710938 13.578125 C 74.773438 13.832031 74.078125 14.695312 74.078125 15.71875 C 74.078125 16.945312 75.070312 17.941406 76.296875 17.941406 C 76.621094 17.941406 76.929688 17.871094 77.210938 17.742188 Z M 69.777344 13.496094 C 68.554688 13.496094 67.5625 14.492188 67.5625 15.71875 C 67.5625 16.945312 68.554688 17.941406 69.777344 17.941406 C 71.003906 17.941406 71.996094 16.945312 71.996094 15.71875 C 71.996094 14.492188 71.003906 13.496094 69.777344 13.496094 Z M 63.257812 13.496094 C 62.035156 13.496094 61.042969 14.492188 61.042969 15.71875 C 61.042969 16.945312 62.035156 17.941406 63.257812 17.941406 C 64.484375 17.941406 65.476562 16.945312 65.476562 15.71875 C 65.476562 14.492188 64.484375 13.496094 63.257812 13.496094 Z M 56.742188 13.496094 C 55.515625 13.496094 54.523438 14.492188 54.523438 15.71875 C 54.523438 16.945312 55.515625 17.941406 56.742188 17.941406 C 57.964844 17.941406 58.957031 16.945312 58.957031 15.71875 C 58.957031 14.492188 57.964844 13.496094 56.742188 13.496094 Z M 50.222656 13.496094 C 48.996094 13.496094 48.003906 14.492188 48.003906 15.71875 C 48.003906 16.945312 48.996094 17.941406 50.222656 17.941406 C 51.445312 17.941406 52.4375 16.945312 52.4375 15.71875 C 52.4375 14.492188 51.445312 13.496094 50.222656 13.496094 Z M 45.921875 15.71875 C 45.921875 16.945312 44.929688 17.941406 43.703125 17.941406 C 43.378906 17.941406 43.070312 17.871094 42.789062 17.742188 L 44.289062 13.578125 C 45.226562 13.832031 45.921875 14.695312 45.921875 15.71875 " fill-opacity="1" fill-rule="nonzero"/><g clip-path="url(#53f572d6ca)"><path fill="#e9124c" d="M 56.433594 52.695312 L 56.449219 46.644531 L 55.179688 46.640625 L 55.164062 52.691406 C 54.050781 52.972656 53.226562 53.980469 53.226562 55.179688 C 53.226562 56.601562 54.375 57.753906 55.792969 57.753906 C 57.207031 57.753906 58.355469 56.601562 58.355469 55.179688 C 58.355469 53.984375 57.539062 52.980469 56.433594 52.695312 Z M 73.265625 52.695312 L 73.28125 46.644531 L 72.007812 46.640625 L 71.996094 52.691406 C 70.882812 52.972656 70.058594 53.980469 70.058594 55.179688 C 70.058594 56.601562 71.207031 57.753906 72.625 57.753906 C 74.039062 57.753906 75.1875 56.601562 75.1875 55.179688 C 75.1875 53.984375 74.371094 52.980469 73.265625 52.695312 Z M 90.097656 52.695312 L 90.113281 46.644531 L 88.84375 46.640625 L 88.828125 52.691406 C 87.714844 52.972656 86.890625 53.980469 86.890625 55.179688 C 86.890625 56.601562 88.039062 57.753906 89.457031 57.753906 C 90.871094 57.753906 92.019531 56.601562 92.019531 55.179688 C 92.019531 53.984375 91.203125 52.980469 90.097656 52.695312 Z M 106.929688 52.695312 L 106.945312 46.644531 L 105.671875 46.640625 L 105.65625 52.691406 C 104.546875 52.972656 103.722656 53.980469 103.722656 55.179688 C 103.722656 56.601562 104.871094 57.753906 106.289062 57.753906 C 107.703125 57.753906 108.851562 56.601562 108.851562 55.179688 C 108.851562 53.984375 108.035156 52.980469 106.929688 52.695312 Z M 78.40625 21.070312 L 41.59375 21.070312 L 40.675781 23.628906 L 79.324219 23.628906 Z M 5.9375 52.695312 L 5.953125 46.644531 L 4.683594 46.640625 L 4.667969 52.691406 C 3.554688 52.972656 2.734375 53.980469 2.734375 55.179688 C 2.734375 56.601562 3.878906 57.753906 5.296875 57.753906 C 6.710938 57.753906 7.863281 56.601562 7.863281 55.179688 C 7.863281 53.984375 7.042969 52.980469 5.9375 52.695312 Z M 39.601562 52.695312 L 39.617188 46.644531 L 38.347656 46.640625 L 38.332031 52.691406 C 37.21875 52.972656 36.394531 53.980469 36.394531 55.179688 C 36.394531 56.601562 37.542969 57.753906 38.960938 57.753906 C 40.375 57.753906 41.523438 56.601562 41.523438 55.179688 C 41.523438 53.984375 40.707031 52.980469 39.601562 52.695312 Z M 22.769531 52.695312 L 22.785156 46.644531 L 21.515625 46.640625 L 21.5 52.691406 C 20.386719 52.972656 19.5625 53.980469 19.5625 55.179688 C 19.5625 56.601562 20.710938 57.753906 22.128906 57.753906 C 23.542969 57.753906 24.691406 56.601562 24.691406 55.179688 C 24.691406 53.984375 23.875 52.980469 22.769531 52.695312 Z M 114.296875 37.679688 L 110.40625 41.585938 L 106.519531 37.679688 L 102.628906 41.585938 L 98.738281 37.679688 L 94.851562 41.585938 L 90.960938 37.679688 L 87.070312 41.585938 L 83.183594 37.679688 L 79.292969 41.585938 L 75.40625 37.679688 L 71.515625 41.585938 L 67.625 37.679688 L 63.738281 41.585938 L 59.847656 37.679688 L 55.957031 41.585938 L 52.070312 37.679688 L 48.179688 41.585938 L 44.289062 37.679688 L 40.402344 41.585938 L 36.511719 37.679688 L 32.621094 41.585938 L 28.734375 37.679688 L 24.84375 41.585938 L 20.953125 37.679688 L 17.066406 41.585938 L 13.175781 37.679688 L 9.289062 41.585938 L 5.398438 37.679688 L 1.507812 41.585938 L 0.0273438 40.097656 L 0.0273438 42.027344 C 0.0273438 42.609375 0.140625 43.160156 0.332031 43.671875 L 1.507812 44.851562 L 5.398438 40.945312 L 9.289062 44.851562 L 13.175781 40.945312 L 17.066406 44.851562 L 20.953125 40.945312 L 24.84375 44.851562 L 28.734375 40.945312 L 32.621094 44.851562 L 36.511719 40.945312 L 40.402344 44.851562 L 44.289062 40.945312 L 48.179688 44.851562 L 52.070312 40.945312 L 55.957031 44.851562 L 59.847656 40.945312 L 63.738281 44.851562 L 67.625 40.945312 L 71.515625 44.851562 L 75.40625 40.945312 L 79.292969 44.851562 L 83.183594 40.945312 L 87.070312 44.851562 L 90.960938 40.945312 L 94.851562 44.851562 L 98.738281 40.945312 L 102.628906 44.851562 L 106.519531 40.945312 L 110.40625 44.851562 L 114.296875 40.945312 L 118.1875 44.851562 L 119.8125 43.21875 C 119.914062 42.839844 119.972656 42.441406 119.972656 42.027344 L 119.972656 39.789062 L 118.1875 41.585938 Z M 119.972656 32.019531 L 119.972656 34.464844 L 0.0273438 34.464844 L 0.0273438 32.019531 L 119.972656 32.019531 " fill-opacity="1" fill-rule="nonzero"/></g><g clip-path="url(#93f62d47a6)"><path fill="#3eaf3c" d="M 115.34375 52.695312 L 115.359375 46.644531 L 114.089844 46.640625 L 114.074219 52.691406 C 112.960938 52.972656 112.140625 53.980469 112.140625 55.179688 C 112.140625 56.601562 113.289062 57.753906 114.703125 57.753906 C 116.121094 57.753906 117.269531 56.601562 117.269531 55.179688 C 117.269531 53.984375 116.449219 52.980469 115.34375 52.695312 Z M 98.511719 52.695312 L 98.527344 46.644531 L 97.257812 46.640625 L 97.242188 52.691406 C 96.128906 52.972656 95.308594 53.980469 95.308594 55.179688 C 95.308594 56.601562 96.457031 57.753906 97.871094 57.753906 C 99.289062 57.753906 100.4375 56.601562 100.4375 55.179688 C 100.4375 53.984375 99.617188 52.980469 98.511719 52.695312 Z M 81.683594 52.695312 L 81.695312 46.644531 L 80.425781 46.640625 L 80.410156 52.691406 C 79.300781 52.972656 78.476562 53.980469 78.476562 55.179688 C 78.476562 56.601562 79.625 57.753906 81.039062 57.753906 C 82.457031 57.753906 83.605469 56.601562 83.605469 55.179688 C 83.605469 53.984375 82.785156 52.980469 81.683594 52.695312 Z M 64.847656 52.695312 L 64.867188 46.644531 L 63.59375 46.640625 L 63.578125 52.691406 C 62.46875 52.972656 61.644531 53.980469 61.644531 55.179688 C 61.644531 56.601562 62.792969 57.753906 64.207031 57.753906 C 65.625 57.753906 66.773438 56.601562 66.773438 55.179688 C 66.773438 53.984375 65.957031 52.980469 64.847656 52.695312 Z M 48.019531 52.695312 L 48.035156 46.644531 L 46.761719 46.640625 L 46.746094 52.691406 C 45.636719 52.972656 44.8125 53.980469 44.8125 55.179688 C 44.8125 56.601562 45.960938 57.753906 47.375 57.753906 C 48.792969 57.753906 49.941406 56.601562 49.941406 55.179688 C 49.941406 53.984375 49.121094 52.980469 48.019531 52.695312 Z M 31.1875 52.695312 L 31.199219 46.644531 L 29.929688 46.640625 L 29.914062 52.691406 C 28.804688 52.972656 27.980469 53.980469 27.980469 55.179688 C 27.980469 56.601562 29.128906 57.753906 30.542969 57.753906 C 31.960938 57.753906 33.109375 56.601562 33.109375 55.179688 C 33.109375 53.984375 32.289062 52.980469 31.1875 52.695312 Z M 14.355469 52.695312 L 14.371094 46.644531 L 13.097656 46.640625 L 13.082031 52.691406 C 11.972656 52.972656 11.148438 53.980469 11.148438 55.179688 C 11.148438 56.601562 12.296875 57.753906 13.710938 57.753906 C 15.128906 57.753906 16.277344 56.601562 16.277344 55.179688 C 16.277344 53.984375 15.460938 52.980469 14.355469 52.695312 Z M 74.507812 10.21875 L 74.738281 10.867188 L 45.261719 10.867188 L 45.492188 10.21875 C 45.730469 9.558594 46.011719 8.921875 46.332031 8.308594 L 73.667969 8.308594 C 73.988281 8.921875 74.269531 9.558594 74.507812 10.21875 " fill-opacity="1" fill-rule="nonzero"/></g></svg>