<svg xmlns="http://www.w3.org/2000/svg" xmlns:xlink="http://www.w3.org/1999/xlink" width="100" zoomAndPan="magnify" viewBox="0 0 75 74.999997" height="100" preserveAspectRatio="xMidYMid meet" version="1.0"><defs><clipPath id="8fcce7a155"><path d="M 15.25 0 L 59.5 0 L 59.5 75 L 15.25 75 Z M 15.25 0 " clip-rule="nonzero"/></clipPath></defs><g clip-path="url(#8fcce7a155)"><path fill="#ffffff" d="M 50.703125 0.386719 C 50.222656 0.558594 49.480469 0.917969 49.050781 1.210938 C 48.015625 1.910156 16.949219 32.773438 16.378906 33.675781 C 15.636719 34.855469 15.265625 36.300781 15.375 37.777344 C 15.453125 39.144531 15.746094 40.015625 16.488281 41.214844 C 17.074219 42.144531 47.90625 72.820312 48.988281 73.566406 C 50.78125 74.78125 52.867188 74.996094 54.660156 74.175781 C 55.941406 73.582031 57.921875 71.5625 58.617188 70.117188 C 59.078125 69.167969 59.140625 68.875 59.140625 67.789062 C 59.140625 66.792969 59.0625 66.390625 58.769531 65.765625 C 58.476562 65.144531 56.113281 62.691406 46.777344 53.320312 C 40.378906 46.902344 34.96875 41.367188 34.753906 41.027344 C 33.980469 39.816406 33.6875 38.570312 33.75 37 C 33.796875 35.773438 33.875 35.449219 34.335938 34.515625 C 34.816406 33.519531 35.714844 32.589844 46.625 21.632812 C 56.160156 12.074219 58.476562 9.667969 58.769531 9.042969 C 59.480469 7.519531 59.28125 5.625 58.246094 3.855469 C 57.640625 2.84375 55.742188 1.148438 54.597656 0.605469 C 53.46875 0.078125 51.910156 0 50.703125 0.386719 Z M 50.703125 0.386719 " fill-opacity="1" fill-rule="nonzero"/></g></svg>