<svg xmlns="http://www.w3.org/2000/svg" xmlns:xlink="http://www.w3.org/1999/xlink" width="50" zoomAndPan="magnify" viewBox="0 0 37.5 37.499999" height="50" preserveAspectRatio="xMidYMid meet" version="1.0"><defs><clipPath id="e35c572ebe"><path d="M 0 7.5 L 37 7.5 L 37 30 L 0 30 Z M 0 7.5 " clip-rule="nonzero"/></clipPath></defs><g clip-path="url(#e35c572ebe)"><path fill="#ffffff" d="M 4.136719 30 C 4.136719 30 16.539062 29.964844 22.085938 29.929688 C 25.742188 29.300781 26.109375 26.152344 26.074219 24.433594 C 32.601562 24.785156 37.207031 20.269531 36.046875 14.257812 C 34.886719 8.246094 28.757812 7.5 28.757812 7.5 L 1.308594 7.5 C 0.402344 7.5 0.289062 8.675781 0.289062 8.675781 C 0.289062 8.675781 0.167969 19.449219 0.257812 26.070312 C 0.503906 29.636719 4.136719 30 4.136719 30 Z M 26.191406 11.808594 L 28.84375 11.808594 C 28.84375 11.808594 31.800781 12.621094 31.800781 15.691406 C 31.800781 18.507812 30.324219 19.617188 28.714844 20.128906 C 27.320312 20.300781 26.191406 20.167969 26.191406 20.167969 Z M 6.621094 13.898438 C 8.050781 12.414062 11.128906 12.300781 13.167969 14.496094 C 13.167969 14.496094 15.515625 11.875 18.367188 13.078125 C 21.226562 14.285156 21.117188 17.507812 19.453125 19.421875 C 17.585938 21.5625 13.4375 25.273438 13.4375 25.273438 C 13.4375 25.273438 13.253906 25.449219 12.972656 25.308594 C 12.859375 25.222656 12.808594 25.175781 12.808594 25.175781 C 12.144531 24.527344 7.757812 20.691406 6.757812 19.359375 C 5.695312 17.9375 5.199219 15.386719 6.621094 13.898438 Z M 6.621094 13.898438 " fill-opacity="1" fill-rule="nonzero"/></g></svg>